# xmcd
#
# Track frame offsets:
#	150
#	19932
#	46287
#	65095
#	85872
#	105050
#	125600
#	153265
#	181825
#	205032
#	226310
#	250582
#	264807
#	290862
#
# Disc length: 4186 seconds
#
# Revision: 20
# Processed by: cddbd v1.5.2PL0 Copyright (c) Steve Scherf et al.
# Submitted via: Jack! The Knife 20 Magnifico
#
DISCID=b210580e
DTITLE=Francesco De Gregori - La valigia dell'attore [CD 1)
DYEAR=1997
DGENRE=Pop
TTITLE0=La Valigia Dell'Attore
TTITLE1=Sangue Su Sangue
TTITLE2=L'Agnello di Dio
TTITLE3=Dr. Dobermann
TTITLE4=Nero
TTITLE5=La Leva Calcistica della Classe '68
TTITLE6=Titanic
TTITLE7=Pablo
TTITLE8=Generale
TTITLE9=Pilota di guerra
TTITLE10=Bufalo Bill
TTITLE11=Stelutis Alpinis
TTITLE12=Alice
TTITLE13=La donna cannone
EXTD=Guido Guglielminetti
EXTT0=Francesco De Gregori
EXTT1=Francesco De Gregori
EXTT2=Francesco De Gregori
EXTT3=Francesco De Gregori
EXTT4=Francesco De Gregori
EXTT5=Francesco De Gregori
EXTT6=Francesco De Gregori
EXTT7=De Gregori, Dalla
EXTT8=Francesco De Gregori
EXTT9=Francesco De Gregori
EXTT10=Francesco De Gregori
EXTT11=Zardini, De Gregori
EXTT12=Francesco De Gregori
EXTT13=Francesco De Gregori
PLAYORDER=
